<mxfile host="app.diagrams.net" modified="2023-09-21T19:14:51.813Z" agent="Mozilla/5.0 (X11; Linux x86_64; rv:102.0) Gecko/20100101 Firefox/102.0" etag="oXGa-997F8RcIHBK__LS" version="21.8.0" type="github">
  <diagram name="PÃ¡gina-1" id="o_Zxrqv8MT8oihD1HyIn">
    <mxGraphModel dx="1434" dy="728" grid="1" gridSize="10" guides="1" tooltips="1" connect="1" arrows="1" fold="1" page="1" pageScale="1" pageWidth="827" pageHeight="1169" math="0" shadow="0">
      <root>
        <mxCell id="0" />
        <mxCell id="1" parent="0" />
        <mxCell id="BEekvA1_idSLMSyLlJ_p-1" value="" style="whiteSpace=wrap;html=1;aspect=fixed;" vertex="1" parent="1">
          <mxGeometry x="110" y="70" width="580" height="580" as="geometry" />
        </mxCell>
        <mxCell id="BEekvA1_idSLMSyLlJ_p-2" value="button" style="whiteSpace=wrap;html=1;aspect=fixed;" vertex="1" parent="1">
          <mxGeometry x="110" y="70" width="60" height="60" as="geometry" />
        </mxCell>
        <mxCell id="BEekvA1_idSLMSyLlJ_p-7" style="edgeStyle=orthogonalEdgeStyle;rounded=0;orthogonalLoop=1;jettySize=auto;html=1;entryX=0.5;entryY=1;entryDx=0;entryDy=0;" edge="1" parent="1" source="BEekvA1_idSLMSyLlJ_p-1" target="BEekvA1_idSLMSyLlJ_p-1">
          <mxGeometry relative="1" as="geometry">
            <Array as="points">
              <mxPoint x="400" y="340" />
              <mxPoint x="400" y="340" />
            </Array>
          </mxGeometry>
        </mxCell>
        <mxCell id="BEekvA1_idSLMSyLlJ_p-3" value="" style="rounded=0;whiteSpace=wrap;html=1;" vertex="1" parent="1">
          <mxGeometry x="170" y="70" width="520" height="60" as="geometry" />
        </mxCell>
        <mxCell id="BEekvA1_idSLMSyLlJ_p-9" value="" style="rounded=0;whiteSpace=wrap;html=1;" vertex="1" parent="1">
          <mxGeometry x="252.99999999999997" y="205" width="320.16" height="380" as="geometry" />
        </mxCell>
        <mxCell id="BEekvA1_idSLMSyLlJ_p-8" value="" style="endArrow=none;html=1;rounded=0;entryX=0.5;entryY=0;entryDx=0;entryDy=0;exitX=0.5;exitY=1;exitDx=0;exitDy=0;" edge="1" parent="1" source="BEekvA1_idSLMSyLlJ_p-9" target="BEekvA1_idSLMSyLlJ_p-9">
          <mxGeometry width="50" height="50" relative="1" as="geometry">
            <mxPoint x="422.92992000000004" y="588.04" as="sourcePoint" />
            <mxPoint x="416.52672000000007" y="209.94000000000005" as="targetPoint" />
          </mxGeometry>
        </mxCell>
        <mxCell id="BEekvA1_idSLMSyLlJ_p-11" value="Imagen" style="rounded=0;whiteSpace=wrap;html=1;" vertex="1" parent="1">
          <mxGeometry x="430" y="250" width="120" height="60" as="geometry" />
        </mxCell>
        <mxCell id="BEekvA1_idSLMSyLlJ_p-12" value="Textbox/input" style="rounded=0;whiteSpace=wrap;html=1;" vertex="1" parent="1">
          <mxGeometry x="430" y="350" width="120" height="60" as="geometry" />
        </mxCell>
        <mxCell id="BEekvA1_idSLMSyLlJ_p-13" value="Textbox/input" style="rounded=0;whiteSpace=wrap;html=1;" vertex="1" parent="1">
          <mxGeometry x="430" y="430" width="120" height="60" as="geometry" />
        </mxCell>
        <mxCell id="BEekvA1_idSLMSyLlJ_p-14" value="Imagen" style="rounded=0;whiteSpace=wrap;html=1;" vertex="1" parent="1">
          <mxGeometry x="260" y="250" width="50" height="60" as="geometry" />
        </mxCell>
        <mxCell id="BEekvA1_idSLMSyLlJ_p-15" value="Imagen" style="rounded=0;whiteSpace=wrap;html=1;" vertex="1" parent="1">
          <mxGeometry x="260" y="350" width="50" height="60" as="geometry" />
        </mxCell>
        <mxCell id="BEekvA1_idSLMSyLlJ_p-16" value="label" style="rounded=0;whiteSpace=wrap;html=1;" vertex="1" parent="1">
          <mxGeometry x="320" y="270" width="80" height="30" as="geometry" />
        </mxCell>
        <mxCell id="BEekvA1_idSLMSyLlJ_p-17" value="label" style="rounded=0;whiteSpace=wrap;html=1;" vertex="1" parent="1">
          <mxGeometry x="320" y="370" width="80" height="30" as="geometry" />
        </mxCell>
        <mxCell id="BEekvA1_idSLMSyLlJ_p-18" value="Button" style="rounded=0;whiteSpace=wrap;html=1;" vertex="1" parent="1">
          <mxGeometry x="430" y="510" width="120" height="60" as="geometry" />
        </mxCell>
        <mxCell id="BEekvA1_idSLMSyLlJ_p-19" value="Textbox/input" style="rounded=0;whiteSpace=wrap;html=1;" vertex="1" parent="1">
          <mxGeometry x="278.08" y="80" width="270" height="40" as="geometry" />
        </mxCell>
      </root>
    </mxGraphModel>
  </diagram>
</mxfile>
